<?xml version="1.0" encoding="utf-8"?>
<!-- Generator: Adobe Illustrator 21.0.0, SVG Export Plug-In . SVG Version: 6.00 Build 0)  -->
<svg version="1.1" xmlns="http://www.w3.org/2000/svg" xmlns:xlink="http://www.w3.org/1999/xlink" x="0px" y="0px"
	 viewBox="0 0 360 360" style="enable-background:new 0 0 360 360;" xml:space="preserve">
<style type="text/css">
	.st0{fill:#B9C78E;}
	.st1{fill:#E6E6B4;}
	.st2{fill:#C57341;}
	.st3{fill:#837B4A;stroke:#5A5220;stroke-miterlimit:10;}
	.st4{fill:#E6E6B4;stroke:#5A5220;stroke-miterlimit:10;}
	.st5{fill:none;stroke:#CED99C;stroke-width:3;stroke-miterlimit:10;}
</style>
<g id="Layer_1">
	<path class="st0" d="M289,308H71c-6.6,0-12-5.4-12-12V78c0-6.6,5.4-12,12-12h218c6.6,0,12,5.4,12,12v218
		C301,302.6,295.6,308,289,308z"/>
	<path class="st1" d="M289,303H71c-6.6,0-12-5.4-12-12V73c0-6.6,5.4-12,12-12h218c6.6,0,12,5.4,12,12v218
		C301,297.6,295.6,303,289,303z"/>
	<g>
		<path class="st1" d="M243,113c0,0-7.5,31-9.5,24L263,267l-96.5,12.5l7-62.5c0,0-18-30-18-22"/>
		<path class="st2" d="M243.2,113c-0.5,2.3-0.9,4.6-1.5,6.9c-0.5,2.3-1.1,4.6-1.7,6.9c-0.6,2.3-1.3,4.5-2,6.8
			c-0.4,1.1-0.8,2.2-1.4,3.4c-0.1,0.3-0.3,0.6-0.5,0.9c-0.2,0.3-0.4,0.6-0.8,0.9c-0.2,0.2-0.6,0.4-1.1,0.3c-0.5-0.1-0.9-0.4-1.1-0.6
			c-0.4-0.5-0.5-0.8-0.6-1.2l2.1-0.5c2.8,10.8,5.4,21.5,8,32.4c2.6,10.8,5,21.6,7.2,32.5L253,218l1.6,8.2l1.7,8.2
			c2.3,10.9,4.9,21.7,7.6,32.4l0.2,0.9l-1,0.2l-24.1,3.7L215,275l-24.1,3.3l-12,1.7l-12.1,1.6l-2.7,0.4l0.3-2.7
			c0.6-5.2,1.2-10.4,1.8-15.6c0.6-5.2,1.3-10.4,1.9-15.6c0.6-5.2,1.3-10.4,2-15.6c0.7-5.2,1.4-10.4,2.1-15.6l0.2,0.8
			c-2.5-4.5-5.2-8.9-8-13.2c-1.4-2.2-2.8-4.3-4.3-6.4c-0.8-1-1.6-2-2.4-2.9c-0.4-0.4-0.9-0.9-1.4-1.1c-0.2-0.1-0.4-0.1-0.5,0.2
			c-0.1,0.2-0.2,0.6-0.2,0.9h-0.4c0-0.3,0-0.7,0.1-1c0.1-0.2,0.2-0.4,0.4-0.5c0.2-0.1,0.5-0.1,0.7,0c0.8,0.2,1.2,0.7,1.8,1.1
			c1,0.9,1.9,1.9,2.7,2.8c1.7,2,3.3,4.1,4.8,6.1c3.1,4.2,5.9,8.5,8.8,12.9l0.2,0.3l0,0.5c-0.4,5.2-0.9,10.4-1.4,15.7
			c-0.5,5.2-1,10.4-1.5,15.7c-0.5,5.2-1,10.4-1.6,15.6c-0.6,5.2-1.1,10.4-1.7,15.6l-2.4-2.4l12.1-1.5l12.1-1.5l24.2-2.9l24.2-2.7
			l24.2-2.6l-0.8,1.1c-2.2-10.9-4.6-21.7-7.2-32.6l-2-8.1l-2.1-8.1l-4.1-16.1c-2.8-10.8-5.2-21.6-7.6-32.5
			c-2.4-10.9-4.6-21.7-6.8-32.6l2.1-0.5c0,0.2,0.1,0.4,0.1,0.4c0,0-0.1-0.1-0.4-0.2c-0.3,0-0.3,0.1-0.3,0.1c0,0,0.2-0.2,0.3-0.4
			c0.1-0.2,0.3-0.4,0.4-0.6c0.5-0.9,1-2,1.4-3.1c0.9-2.1,1.7-4.3,2.4-6.6c0.7-2.2,1.5-4.5,2.1-6.7c0.7-2.2,1.4-4.5,2-6.7L243.2,113z
			"/>
	</g>
	<g>
		<path class="st3" d="M207.7,211.7c0,0-122.1-30.8-122.2-38.2c-0.4-19.6,18-18,18-18l0.7,0.9l112.1,34.3l14.9,17.3l-22.8,4.1"/>
		<path class="st4" d="M208.4,212c0,0-5.9-5.5-0.9-6c0,0-4.7-4.8,2-6.9c0,0-2.1-6.7,2.3-6c0,0-3.4-4.2,4.5-2.5l11.7,13.5l-2.1,0.2
			l0.6,1.9l-1.4,0.5l-1.4,0.5l2.1,1.7L208.4,212z"/>
	</g>
	<g>
		<path class="st1" d="M193.5,164.5c0,0,23,34-58,48c-61.1,10.6-22-48-22-48l14-17c0,0,31-21,61-11l16-13c0,0,9-11,16,2
			c0,0,21-47,36-18c0,0,9,12,4,18c0,0-4.1-5.6-8.3-9.6c-3.6-3.4-7.3-5.7-8.7-2.4"/>
		<path class="st2" d="M193.7,164.4c1.9,3,2.9,6.5,3.1,10c0.1,1.8-0.1,3.5-0.4,5.3c-0.2,0.9-0.4,1.7-0.7,2.6
			c-0.2,0.4-0.3,0.8-0.5,1.2l-0.6,1.2c-1.6,3.2-3.8,6-6.4,8.3c-2.6,2.4-5.5,4.4-8.5,6.2c-6.1,3.6-12.7,6.1-19.3,8.2
			c-6.7,2.2-13.5,3.8-20.3,5.1c-6.8,1.4-13.9,2.6-21,2.1c-3.6-0.2-7.2-0.9-10.5-2.5c-1.7-0.8-3.2-1.9-4.5-3.4
			c-1.3-1.4-2.3-3.1-2.9-4.8c-1.3-3.6-1.3-7.3-0.8-10.9c0.5-3.6,1.4-7,2.6-10.4c2.4-6.7,5.6-13,9.4-19l0,0l0.1-0.1l13.9-17.1
			l0.1-0.2l0.2-0.1c4.6-3,9.4-5.4,14.4-7.6c5-2.1,10.2-3.8,15.5-5c2.7-0.6,5.4-1,8.1-1.3c2.7-0.3,5.5-0.4,8.2-0.4
			c5.5,0.1,11,1,16.3,2.7l-1.9,0.3c5.3-4.4,10.6-8.7,16-13l-0.3,0.3c0.7-0.8,1.3-1.4,2.1-2c0.7-0.6,1.5-1.2,2.4-1.6
			c1.7-0.9,3.8-1.6,6-1.4c2.2,0.2,4.2,1.4,5.6,2.8c1.4,1.4,2.4,3,3.3,4.6l-3.6,0.1c2-4.2,4.2-8.1,6.7-12c1.2-1.9,2.6-3.8,4-5.6
			c1.4-1.8,3-3.6,4.7-5.2c1.7-1.6,3.6-3.1,5.9-4.2c2.2-1.1,5-1.6,7.6-0.9c2.6,0.7,4.7,2.4,6.2,4.2c1.6,1.8,2.7,3.9,3.8,5.9l-0.1-0.2
			c1,1.4,1.8,2.9,2.6,4.4c0.8,1.5,1.5,3.1,2,4.7c0.5,1.6,0.9,3.4,0.9,5.2c0,1.8-0.6,3.7-1.8,5.1l-0.8,0.9l-0.6-0.9
			c-2.2-3.1-4.6-6.2-7.3-9c-1.3-1.4-2.7-2.7-4.3-3.8c-0.8-0.5-1.6-1-2.5-1c-0.9-0.1-1.7,0.5-2,1.3l-0.4-0.2c0.2-0.5,0.4-0.9,0.9-1.3
			c0.4-0.3,1-0.5,1.5-0.5c1.1,0,2,0.5,2.9,1c1.7,1,3.2,2.3,4.7,3.6c2.9,2.7,5.4,5.6,7.9,8.7l-1.4,0c0.9-1.1,1.2-2.5,1.2-4
			c0-1.5-0.4-3-0.9-4.4c-0.5-1.5-1.2-2.9-2-4.3c-0.8-1.4-1.7-2.7-2.6-4l0,0l-0.1-0.1c-1.1-1.9-2.2-3.7-3.7-5.2
			c-1.4-1.5-3.1-2.7-4.9-3.1c-1.8-0.4-3.7,0-5.5,0.9c-1.8,0.9-3.4,2.2-5,3.7c-3.1,3-5.6,6.6-7.9,10.3c-2.3,3.7-4.4,7.7-6.2,11.6
			l-1.6,3.6l-1.9-3.5c-0.7-1.3-1.6-2.6-2.6-3.5c-1-1-2.1-1.6-3.2-1.7c-1.1-0.1-2.4,0.2-3.6,0.9c-0.6,0.3-1.2,0.7-1.7,1.2
			c-0.5,0.4-1.1,1-1.5,1.5L206,125l-0.2,0.1c-5.3,4.4-10.7,8.7-16,13l-0.9,0.7l-1.1-0.3c-4.9-1.6-10-2.5-15.1-2.7
			c-2.6-0.1-5.2,0-7.7,0.2c-2.6,0.2-5.2,0.6-7.7,1.2c-5.1,1-10.1,2.6-15,4.6c-4.8,2-9.6,4.3-14,7.1l0.3-0.3l-14.1,16.9l0.1-0.1
			c-3.7,5.7-7,11.9-9.4,18.3c-1.2,3.2-2.1,6.5-2.6,9.8c-0.5,3.3-0.5,6.7,0.6,9.8c1,3.1,3.3,5.5,6.2,7c2.9,1.5,6.3,2.2,9.6,2.4
			c6.8,0.5,13.7-0.5,20.5-1.8c6.8-1.2,13.6-2.7,20.3-4.7c6.6-2,13.2-4.4,19.2-7.8c3-1.7,5.9-3.7,8.5-5.9c2.6-2.3,4.8-4.9,6.4-8
			l0.6-1.2c0.2-0.4,0.3-0.8,0.5-1.2c0.3-0.8,0.5-1.6,0.8-2.5c0.4-1.7,0.5-3.4,0.5-5.1c-0.2-3.4-1.1-6.9-2.9-9.8L193.7,164.4z"/>
	</g>
	<g>
		<path class="st1" d="M128,174c-13.6,0-25-6.9-25-15s11.4-15,25-15s25,6.9,25,15S141.6,174,128,174z"/>
		<path class="st2" d="M128,147c13,0,22,6.3,22,12s-9,12-22,12s-22-6.3-22-12S115,147,128,147 M128,141c-15.5,0-28,8.1-28,18
			s12.5,18,28,18s28-8.1,28-18S143.5,141,128,141L128,141z"/>
	</g>
	<g>
		<path class="st1" d="M210.5,119.4c0,0,7-41.9-19-27.9c0,0-26,6-21,10S197,105,197,105"/>
		<path class="st2" d="M210.5,119.4c0.2-3.8,0.2-7.7-0.1-11.4c-0.2-3.8-0.8-7.5-2-10.9c-1.2-3.4-3.3-6.2-6.4-6.5
			c-1.5-0.2-3.2,0-4.8,0.5c-1.6,0.5-3.3,1.2-4.9,2.1l-0.2,0.1l-0.3,0.1c-4.1,1.1-8.3,2.1-12.4,3.5c-2,0.7-4,1.4-5.8,2.3
			c-0.4,0.2-0.9,0.5-1.3,0.7c-0.4,0.2-0.7,0.5-0.9,0.7c-0.1,0.1-0.1,0.1-0.1,0c0-0.1,0-0.4-0.1-0.4c0-0.1,0,0,0.1,0.1
			c0.2,0.1,0.3,0.2,0.5,0.3c0.7,0.5,1.7,0.8,2.6,1.1c1,0.3,2,0.6,3,0.8c2.1,0.5,4.2,0.8,6.3,1.1c4.3,0.6,8.6,1,13,1.4
			c-4.3,0.5-8.7,0.7-13.1,0.7c-2.2-0.1-4.4-0.2-6.6-0.4c-1.1-0.1-2.2-0.3-3.4-0.6c-1.1-0.3-2.3-0.6-3.4-1.2
			c-0.3-0.1-0.6-0.4-0.9-0.5c-0.3-0.2-0.7-0.5-1-1.1c-0.3-0.5-0.5-1.4-0.3-2c0.1-0.6,0.4-1.1,0.7-1.4c0.5-0.7,1.1-1.1,1.6-1.5
			c0.5-0.4,1-0.7,1.6-1c2.1-1.1,4.1-2,6.3-2.7c4.2-1.4,8.4-2.7,12.7-3.7l-0.5,0.2c1.8-0.9,3.6-1.8,5.7-2.3c2-0.6,4.2-0.9,6.5-0.4
			c2.3,0.4,4.4,1.8,5.8,3.5c1.4,1.8,2.2,3.8,2.7,5.7c0.5,2,0.8,3.9,0.9,5.9c0.1,2,0.1,3.9,0,5.9C212,111.9,211.5,115.7,210.5,119.4z
			"/>
	</g>
	<g>
		<ellipse class="st1" cx="210" cy="127" rx="12.5" ry="18.5"/>
		<path class="st2" d="M223,127c-0.1,4.2-0.9,8.4-3,12c-1,1.8-2.4,3.5-4.1,4.8c-1.7,1.3-3.8,2.1-5.9,2.1c-2.1,0-4.2-0.9-5.9-2.1
			c-1.7-1.3-3-3-4-4.8c-2-3.7-2.8-7.8-2.9-12c0.1-4.1,0.9-8.3,3-11.9c1-1.8,2.3-3.4,4-4.7c1.7-1.2,3.7-2,5.8-2
			c2.1,0,4.1,0.8,5.7,2.1c1.6,1.3,2.9,2.9,3.9,4.7c2,3.6,2.8,7.8,2.8,11.8H223z M222.5,127c-0.1-4.1-0.9-8.2-2.9-11.8
			c-1-1.8-2.3-3.4-3.9-4.6c-1.6-1.2-3.6-2-5.6-2c-2,0-4,0.8-5.6,2c-1.6,1.2-2.9,2.9-3.9,4.6c-2,3.6-2.8,7.7-2.8,11.7
			c0.1,4,0.9,8.1,2.9,11.7c1,1.7,2.3,3.3,3.9,4.5c1.6,1.2,3.5,1.9,5.5,1.9c2,0,3.9-0.8,5.4-2c1.6-1.2,2.8-2.8,3.8-4.5
			c1.9-3.5,2.7-7.6,2.8-11.6H222.5z"/>
	</g>
	<ellipse class="st2" cx="214.7" cy="134.2" rx="4.2" ry="6.2"/>
	<g>
		<path class="st2" d="M191.1,122.2c2.1-3.3,4-6.6,5.8-10.1c0.9-1.7,1.7-3.5,2.3-5.3c0.1-0.5,0.3-0.9,0.3-1.4c0-0.5,0.1-1-0.2-1.3
			c-0.3-0.3-0.9-0.3-1.3-0.2c-0.5,0.1-0.9,0.3-1.3,0.6c0.4-0.2,0.9-0.5,1.3-0.6c0.4-0.1,1-0.3,1.4,0.1c0.4,0.4,0.4,1,0.3,1.4
			c0,0.5-0.1,1-0.2,1.5c-0.5,1.9-1.3,3.7-2,5.5c-1.6,3.6-3.4,7-5.4,10.4L191.1,122.2z"/>
	</g>
	<g>
		<ellipse class="st1" cx="192" cy="127" rx="12.5" ry="18.5"/>
		<path class="st2" d="M205,127c-0.1,4.2-0.9,8.4-3,12c-1,1.8-2.4,3.5-4.1,4.8c-1.7,1.3-3.8,2.1-5.9,2.1c-2.1,0-4.2-0.9-5.9-2.1
			c-1.7-1.3-3-3-4-4.8c-2-3.7-2.8-7.8-2.9-12c0.1-4.1,0.9-8.3,3-11.9c1-1.8,2.3-3.4,4-4.7c1.7-1.2,3.7-2,5.8-2
			c2.1,0,4.1,0.8,5.7,2.1c1.6,1.3,2.9,2.9,3.9,4.7c2,3.6,2.8,7.8,2.8,11.8H205z M204.5,127c-0.1-4.1-0.9-8.2-2.9-11.8
			c-1-1.8-2.3-3.4-3.9-4.6c-1.6-1.2-3.6-2-5.6-2c-2,0-4,0.8-5.6,2c-1.6,1.2-2.9,2.9-3.9,4.6c-2,3.6-2.8,7.7-2.8,11.7
			c0.1,4,0.9,8.1,2.9,11.7c1,1.7,2.3,3.3,3.9,4.5c1.6,1.2,3.5,1.9,5.5,1.9c2,0,3.9-0.8,5.4-2c1.6-1.2,2.8-2.8,3.8-4.5
			c1.9-3.5,2.7-7.6,2.8-11.6H204.5z"/>
	</g>
	<ellipse class="st2" cx="191.7" cy="134.2" rx="4.2" ry="6.2"/>
	<path class="st5" d="M287.5,302.5h-216c-6.6,0-12-5.4-12-12v-216c0-6.6,5.4-12,12-12h216c6.6,0,12,5.4,12,12v216
		C299.5,297.1,294.1,302.5,287.5,302.5z"/>
</g>
<g id="Layer_2">
</g>
</svg>
